# xmcd
#
# Track frame offsets:
#	150
#	12031
#	23062
#	35541
#	48954
#	67722
#	81036
#	93149
#	106637
#	118540
#	127317
#	145166
#
# Disc length: 2102 seconds
#
# Revision: 1
# Processed by: cddbd v1.5.1PL0 Copyright (c) Steve Scherf et al.
# Submitted via: audiograbber 1.83.01
#
DISCID=8908340c
DTITLE=Abrams Brothers, The - Carrying On
DYEAR=2005
DGENRE=Bluegrass
TTITLE0=This Little Light Of Mine
TTITLE1=Where the Soul Of Man Never Dies
TTITLE2=Little Georgia Rose
TTITLE3=Gospel Plough
TTITLE4=He Walked All The Way Home
TTITLE5=I'm On My Way Back to the Old Home
TTITLE6=Old Home Place
TTITLE7=I Heard My Mother Call My Name In Prayer
TTITLE8=Scotland
TTITLE9=I Believe
TTITLE10=Drifting Too Far
TTITLE11=I'll Talk It All Over With Him
EXTD=
EXTT0=
EXTT1=
EXTT2=
EXTT3=
EXTT4=
EXTT5=
EXTT6=
EXTT7=
EXTT8=
EXTT9=
EXTT10=
EXTT11=
PLAYORDER=
